<?xml version="1.0" standalone="no"?>
<!DOCTYPE svg PUBLIC "-//W3C//DTD SVG 20010904//EN"
 "http://www.w3.org/TR/2001/REC-SVG-20010904/DTD/svg10.dtd">
<svg version="1.0" xmlns="http://www.w3.org/2000/svg"
 width="2779.000000pt" height="2779.000000pt" viewBox="0 0 2779.000000 2779.000000"
 preserveAspectRatio="xMidYMid meet">
<metadata>
Created by potrace 1.11, written by Peter Selinger 2001-2013
</metadata>
<g transform="translate(0.000000,2779.000000) scale(0.100000,-0.100000)"
fill="#000000" stroke="none">
<path d="M3317 27653 c-97 -413 -170 -922 -196 -1363 -16 -270 -24 -600 -15
-600 5 0 10 -67 12 -148 12 -616 202 -1258 520 -1757 223 -350 572 -686 930
-896 35 -20 60 -39 55 -42 -27 -17 -191 -29 -327 -24 -124 4 -172 10 -267 35
-139 36 -304 104 -414 171 -44 27 -81 48 -83 46 -1 -1 23 -74 54 -161 231
-652 522 -1234 878 -1759 93 -138 94 -140 78 -165 -66 -101 -199 -331 -268
-465 -343 -663 -540 -1362 -595 -2113 -15 -208 -7 -757 15 -942 23 -207 54
-399 91 -575 280 -1311 1045 -2480 2133 -3263 63 -45 121 -86 129 -91 13 -7 8
-28 -32 -142 -294 -845 -455 -1792 -455 -2685 0 -807 219 -1619 695 -2579 879
-1772 2617 -3841 5070 -6036 741 -663 1617 -1387 2353 -1947 l173 -131 142
106 c840 632 1908 1528 2806 2353 733 673 1535 1477 2127 2130 1767 1953 2832
3726 3129 5210 75 375 98 687 84 1122 -26 831 -162 1597 -421 2373 l-60 180
23 15 c1037 687 1831 1753 2191 2940 322 1067 310 2227 -36 3275 -135 407
-352 866 -570 1205 l-54 84 83 121 c305 443 582 976 802 1539 58 148 145 397
141 402 -2 1 -39 -20 -83 -47 -110 -67 -275 -135 -414 -171 -95 -25 -143 -31
-267 -35 -146 -5 -324 9 -324 27 0 4 36 28 79 54 328 193 637 484 863 811 347
502 558 1182 570 1842 2 73 7 133 12 133 18 0 -11 632 -45 960 -33 325 -129
891 -181 1069 l-13 43 -60 -88 c-293 -432 -820 -989 -1330 -1407 -905 -741
-1992 -1289 -3150 -1587 -529 -137 -945 -206 -1590 -265 -1654 -153 -3246
-780 -4309 -1699 -55 -47 -103 -86 -106 -86 -3 0 -51 39 -106 86 -1063 919
-2655 1546 -4309 1699 -283 26 -452 45 -630 71 -1447 213 -2748 747 -3865
1589 -308 233 -545 439 -835 730 -292 292 -556 601 -730 855 -32 47 -62 89
-66 93 -4 5 -18 -40 -32 -100z m6143 -6068 c1148 -152 2128 -814 2688 -1815
334 -599 494 -1317 442 -1991 -67 -857 -411 -1624 -1000 -2233 -1214 -1253
-3136 -1453 -4580 -475 -802 543 -1355 1398 -1519 2349 -39 228 -46 320 -46
610 0 300 8 403 51 640 185 1015 797 1899 1684 2432 437 263 959 439 1445 487
61 6 124 13 140 15 77 11 577 -3 695 -19z m9750 0 c923 -122 1720 -559 2316
-1270 549 -654 846 -1516 821 -2380 -21 -724 -245 -1390 -666 -1985 -213 -302
-552 -636 -867 -856 -1175 -820 -2745 -855 -3955 -88 -242 154 -437 313 -654
535 -561 575 -899 1290 -995 2104 -6 50 -14 182 -17 295 -34 1219 553 2362
1568 3053 520 354 1091 554 1749 611 112 10 581 -3 700 -19z m-5229 -6255
c250 -443 630 -920 1019 -1278 191 -176 552 -462 658 -521 10 -5 -238 -406
-888 -1437 -495 -786 -905 -1433 -909 -1437 -4 -4 -51 61 -104 145 -52 84
-456 724 -896 1422 -791 1255 -800 1270 -778 1285 726 488 1326 1135 1742
1880 68 122 51 128 156 -59z"/>
<path d="M8917 19689 c-38 -4 -86 -11 -108 -14 l-40 -7 71 -71 c90 -89 161
-197 199 -303 43 -117 55 -199 48 -328 -9 -205 -91 -390 -236 -536 -128 -128
-269 -204 -446 -237 -103 -20 -262 -12 -364 17 -190 54 -365 182 -470 343
l-38 58 -27 -85 c-50 -155 -67 -261 -73 -438 -4 -106 -1 -204 7 -265 89 -717
642 -1298 1357 -1428 49 -9 151 -19 228 -22 361 -15 688 78 1000 285 143 95
349 302 443 445 127 194 211 394 253 604 27 139 36 385 19 531 -64 554 -406
1037 -909 1288 -283 140 -610 199 -914 163z"/>
<path d="M18620 19764 c-19 -2 -65 -9 -103 -15 l-67 -11 82 -87 c115 -122 171
-221 215 -382 24 -87 24 -289 0 -378 -68 -253 -219 -442 -442 -551 -125 -61
-192 -79 -325 -87 -284 -16 -570 126 -725 360 -21 31 -41 57 -45 57 -9 0 -46
-124 -71 -235 -61 -269 -42 -593 52 -868 90 -265 270 -534 480 -715 516 -446
1226 -537 1834 -236 172 85 295 174 435 314 253 253 401 538 467 900 24 130
23 438 -1 567 -97 530 -420 962 -894 1198 -229 114 -431 163 -692 169 -91 3
-181 2 -200 0z"/>
</g>
</svg>
